HIERARCHY
ROOT Hips
{
	OFFSET -0.179506 -22.333345 2.821913
	CHANNELS 6 Xposition Yposition Zposition Zrotation Yrotation Xrotation 
	JOINT LeftUpLeg
	{
		OFFSET 6.951974 -9.140623 -0.681533
		CHANNELS 3 Zrotation Yrotation Xrotation
		JOINT LeftLeg
		{
			OFFSET 3.427654 -37.519855 -0.449580
			CHANNELS 3 Zrotation Yrotation Xrotation
			JOINT LeftFoot
			{
				OFFSET -1.359570 -39.796059 -4.369333
				CHANNELS 3 Zrotation Yrotation Xrotation
				JOINT LeftToe
				{
					OFFSET 2.635814 -5.579078 11.928840
					CHANNELS 3 Zrotation Yrotation Xrotation
					End Site
					{
						OFFSET 0.000000 0.000000 0.000000
					}
				}
			}
		}
	}
	JOINT RightUpLeg
	{
		OFFSET -6.767048 -9.052170 -0.431982
		CHANNELS 3 Zrotation Yrotation Xrotation
		JOINT RightLeg
		{
			OFFSET -3.829005 -38.256897 -0.885003
			CHANNELS 3 Zrotation Yrotation Xrotation
			JOINT RightFoot
			{
				OFFSET 1.577377 -39.841461 -4.231180
				CHANNELS 3 Zrotation Yrotation Xrotation
				JOINT RightToe
				{
					OFFSET -2.537174 -4.814398 12.334795
					CHANNELS 3 Zrotation Yrotation Xrotation
					End Site
					{
						OFFSET 0.000000 0.000000 0.000000
					}
				}
			}
		}
	}
	JOINT Spine
	{
		OFFSET -0.253288 10.896323 -2.669631
		CHANNELS 3 Zrotation Yrotation Xrotation
		JOINT Spine1
		{
			OFFSET 0.548704 13.518043 0.109247
			CHANNELS 3 Zrotation Yrotation Xrotation
			JOINT Spine2
			{
				OFFSET 0.145701 5.292222 2.542457
				CHANNELS 3 Zrotation Yrotation Xrotation
				JOINT Neck
				{
					OFFSET -0.277840 21.387037 -4.285703
					CHANNELS 3 Zrotation Yrotation Xrotation
					JOINT Head
					{
						OFFSET 0.515184 6.496960 5.134897
						CHANNELS 3 Zrotation Yrotation Xrotation
						End Site
						{
							OFFSET 0.000000 0.000000 0.000000
						}
					}
				}
				JOINT LeftShoulder
				{
					OFFSET 7.884473 12.174932 -3.408961
					CHANNELS 3 Zrotation Yrotation Xrotation
					JOINT LeftArm
					{
						OFFSET 9.097692 3.046888 -0.886815
						CHANNELS 3 Zrotation Yrotation Xrotation
						JOINT LeftForeArm
						{
							OFFSET 25.961220 -1.277207 -2.745643
							CHANNELS 3 Zrotation Yrotation Xrotation
							JOINT LeftHand
							{
								OFFSET 24.923361 0.898606 -0.117091
								CHANNELS 3 Zrotation Yrotation Xrotation
								End Site
								{
									OFFSET 0.000000 0.000000 0.000000
								}
							}
						}
					}
				}
				JOINT RightShoulder
				{
					OFFSET -8.175920 11.883285 -3.861528
					CHANNELS 3 Zrotation Yrotation Xrotation
					JOINT RightArm
					{
						OFFSET -9.601238 3.255117 -0.914307
						CHANNELS 3 Zrotation Yrotation Xrotation
						JOINT RightForeArm
						{
							OFFSET -25.374195 -1.332924 -2.140099
							CHANNELS 3 Zrotation Yrotation Xrotation
							JOINT RightHand
							{
								OFFSET -25.529810 0.777228 -0.555919
								CHANNELS 3 Zrotation Yrotation Xrotation
								End Site
								{
									OFFSET 0.000000 0.000000 0.000000
								}
							}
						}
					}
				}
			}
		}
	}
}
MOTION
Frames: 18
Frame Time: 0.033333
93.527756 -82.717606 91.066460 34.653969 -5.699849 78.391310 -5.302905 -0.919804 -14.139610 -9.266548 3.970365 31.013824 8.072700 7.599141 -9.694577 nan nan nan -8.475448 4.009323 7.478592 7.542123 12.358642 59.316219 10.426217 -1.782979 6.809494 nan nan nan -4.718655 8.334182 8.859596 2.075637 -0.344611 10.536902 -1.250707 4.452915 -4.367141 3.540593 0.963089 -5.720925 -1.133098 -3.354369 -17.360043 -22.287894 -2.232687 3.200893 -47.527022 13.984400 1.176492 -6.861263 -1.064199 4.203019 -4.719016 6.966517 -10.596553 23.514539 21.331508 -5.676344 56.910694 42.810009 24.579055 -39.937094 63.254985 -19.762964 -3.107112 0.701453 10.120042 
94.237061 -83.234688 91.450935 34.969064 -5.655086 78.507532 -5.846100 -1.272722 -13.012465 -9.178434 3.080356 29.842658 7.906099 8.179673 -9.697549 nan nan nan -7.999457 4.595944 5.798442 6.973405 11.325874 60.619610 10.409274 -2.061151 5.801543 nan nan nan -4.790769 7.794584 9.372933 2.062688 -0.093464 9.813104 -1.142374 4.245383 -4.324340 3.587462 1.334598 -5.344078 -1.306655 -3.447883 -17.434425 -23.079506 -2.013622 3.161413 -47.029187 12.326693 1.964871 -6.973946 -1.987253 4.368753 -3.924574 6.436940 -11.434601 24.498497 20.190770 -5.454285 56.762334 41.640457 25.170752 -36.631199 64.445568 -17.289908 -7.367495 3.031213 5.698481 
94.958771 -83.785370 91.856850 35.390809 -5.510399 78.545255 -6.297131 -1.762639 -11.659208 -8.892230 2.422947 28.509784 7.706017 8.491147 -9.797018 nan nan nan -7.412054 5.150267 4.376176 6.325359 10.369275 61.463365 10.400622 -2.093347 4.889928 nan nan nan -4.789098 7.324091 9.714751 2.150076 0.029611 9.397132 -1.048017 3.981515 -4.328857 3.532677 1.787242 -4.999562 -1.323786 -3.816575 -17.393152 -23.637301 -1.988425 3.074409 -47.014938 11.071930 2.421616 -6.701800 -3.741339 3.735315 -6.044029 5.141458 -11.691183 25.413163 19.037928 -5.291237 56.725136 40.235015 25.509740 -34.738327 65.400463 -14.578193 -7.653276 3.621433 6.703199 
95.685677 -84.351768 92.256523 35.919284 -5.358048 78.521253 -6.779549 -2.160806 -10.189306 -8.561855 1.790904 27.027522 7.743194 8.745538 -9.673240 nan nan nan -6.898936 5.407534 3.030946 5.926944 9.678951 62.158633 9.982254 -2.151996 4.098295 nan nan nan -4.773074 6.885522 9.896332 2.241001 -0.135277 9.380168 -1.045160 3.823929 -4.440977 3.300144 1.964290 -4.884609 -1.051076 -3.812325 -17.203164 -24.019556 -2.276063 2.788423 -47.282750 10.205476 3.028560 -5.889030 -6.025663 2.133191 -3.298323 4.893769 -9.045937 26.099611 18.102936 -5.482533 56.804281 38.134794 25.747180 -35.427820 66.230813 -13.611703 -4.874081 1.848850 12.626106 
96.348045 -84.933113 92.690361 36.565593 -4.978457 78.315311 -7.077748 -1.961591 -8.619390 -8.135856 0.576131 25.743879 7.266669 8.922425 -9.586192 nan nan nan -6.016533 5.637383 1.952072 5.148172 8.785811 62.573059 9.373368 -2.098799 3.317351 nan nan nan -4.562933 6.162451 10.743171 2.191518 -0.108404 8.430442 -0.826388 3.576218 -4.184965 3.222644 2.223209 -4.368583 -1.040036 -3.852810 -17.309936 -24.418222 -2.074672 2.622539 -47.105965 8.681497 3.544589 -6.042499 -7.721256 3.216486 -3.592432 4.642177 -10.378007 26.930722 17.195526 -5.112622 56.088807 36.996169 25.234909 -29.553971 66.682647 -9.315668 -7.647395 5.608949 7.185323 
97.016800 -85.504639 93.109360 37.328270 -4.602150 78.201957 -7.299361 -2.171741 -7.060235 -7.810174 -0.510261 24.278458 7.287281 9.033449 -9.376814 nan nan nan -5.306378 5.623513 0.742659 4.732896 8.141606 62.884455 8.784103 -2.228408 2.639460 nan nan nan -4.450595 5.691511 11.119322 2.355367 -0.398488 8.097462 -0.733807 3.438104 -4.104914 2.815062 2.078902 -4.089074 -0.577701 -3.698957 -17.248977 -24.587964 -2.604766 2.194249 -47.413928 7.743683 3.715853 -5.078891 -9.299442 2.312756 -6.242528 4.455461 -11.112861 27.130175 16.516310 -5.153230 56.279111 34.330594 25.198710 -32.929466 67.796024 -9.827798 -1.380054 1.181254 12.133908 
97.696953 -86.063774 93.528008 38.043657 -4.189776 78.033183 -7.502340 -2.051960 -5.466079 -7.324542 -1.729176 22.900445 7.004818 9.013791 -9.206181 nan nan nan -4.642061 5.667684 -0.331231 4.190043 7.461890 62.883638 8.555166 -1.969259 2.061832 nan nan nan -4.184007 5.091444 11.787050 2.366984 -0.451926 7.359836 -0.584806 3.239114 -3.868745 2.567877 2.030392 -3.908365 -0.384764 -3.728579 -17.072075 -24.723278 -2.758164 1.913803 -47.621802 6.243588 3.918748 -4.872243 -10.562240 1.918216 -7.022113 3.028114 -11.248980 27.361017 15.758089 -5.000792 56.015090 32.467335 24.804621 -30.376841 68.118029 -7.252440 -0.037230 2.072654 11.564390 
98.404243 -86.636864 93.954369 38.889026 -3.707766 77.836673 -7.660528 -1.922773 -3.775890 -6.791310 -3.030783 21.418484 6.712607 9.031383 -8.951224 nan nan nan -3.905663 5.667350 -1.192348 3.869222 6.821760 62.544046 8.040527 -2.060905 1.407769 nan nan nan -3.937862 4.514815 12.233353 2.439029 -0.556322 6.934047 -0.315959 2.937750 -3.703817 2.268620 2.019936 -3.648292 -0.194942 -3.682920 -17.028016 -24.965685 -2.982198 1.782559 -48.011117 4.881455 4.084020 -4.276857 -12.452135 1.941963 -7.988243 1.987452 -12.021590 27.516961 14.959417 -4.845672 55.456192 30.642794 24.136479 -27.190038 68.480016 -3.526397 1.764311 2.262236 10.848387 
99.106171 -87.208313 94.371712 39.841183 -3.156274 77.628266 -7.737223 -1.721668 -2.083988 -6.143632 -4.372311 19.976693 6.381171 8.865706 -8.768978 nan nan nan -3.162708 5.558389 -2.009699 3.502139 6.138568 61.974036 7.544025 -2.294041 0.981447 nan nan nan -3.686173 3.865620 12.652066 2.527878 -0.730431 6.588670 0.003300 2.647064 -3.560909 1.956742 1.908779 -3.387548 -0.029005 -3.472032 -17.057249 -25.235448 -3.224784 1.704131 -48.464934 3.491531 4.270095 -3.507523 -14.365405 1.735794 -8.701567 1.054166 -12.853708 27.568236 14.197365 -4.782420 54.866161 28.832685 23.588165 -23.647151 68.449846 0.165966 3.749507 2.125113 9.922079 
99.705193 -87.809219 94.689674 40.779480 -2.231210 77.635637 -6.979630 -0.726031 -1.136881 -5.753620 -5.504292 19.521506 6.899942 7.678899 -8.991397 nan nan nan -1.997116 5.139983 -3.142125 3.167518 5.574360 61.454740 6.139241 -2.521611 0.536186 nan nan nan -2.972874 3.027510 12.682233 2.646089 -0.555292 6.140168 0.062179 2.106265 -2.588882 2.375390 1.526143 -5.148009 -0.695050 -3.416336 -15.760617 -25.182755 -3.055239 0.635730 -48.857215 1.685421 6.241502 -3.148910 -15.628905 2.380071 -6.839032 -2.260003 -16.715482 26.740599 13.185809 -5.880697 56.136372 26.958124 24.368568 -21.769798 67.218613 2.622666 7.929200 4.857331 4.479359 
100.344505 -88.345406 95.046509 41.691347 -1.695898 77.650220 -6.849176 -0.606538 0.114293 -5.329415 -6.796207 18.344564 6.769310 7.627106 -8.886417 nan nan nan -1.445642 5.120000 -4.304186 2.619266 4.674878 60.737677 5.943074 -2.679634 0.096445 nan nan nan -2.563064 2.443382 12.904849 2.654657 -0.598195 5.762944 0.117960 1.667512 -2.377146 2.381851 1.411259 -5.112730 -0.486278 -3.498077 -15.531165 -25.080377 -3.309476 0.535426 -49.311787 -0.001349 6.715168 -2.679661 -17.330806 2.107712 -7.354345 -3.049923 -18.092856 26.484169 12.518088 -5.882511 56.664251 25.211574 24.516276 -20.062358 66.007744 3.211377 8.518219 5.201859 2.087294 
101.008301 -88.822685 95.372528 42.690385 -1.179813 77.648162 -6.839085 -0.758915 1.344341 -4.854463 -8.071015 17.195057 6.546255 7.863239 -8.715358 nan nan nan -1.055928 5.047284 -5.374671 2.106758 3.723301 59.828609 5.916177 -2.835950 -0.400981 nan nan nan -2.128032 1.835726 13.255467 2.660248 -0.737651 5.270106 0.210958 1.304458 -2.169982 2.204908 1.280186 -5.109074 -0.246286 -3.378612 -15.174933 -25.077168 -3.723240 0.503091 -49.894794 -1.701538 7.189191 -1.912137 -18.872700 2.049941 -7.715202 -3.531299 -18.824702 26.157172 11.710434 -5.863578 56.522426 23.656867 24.304544 -17.338480 65.022809 5.498445 9.735544 5.131752 0.150235 
101.589897 -89.304504 95.678009 44.071049 -0.698575 77.803469 -6.798195 -1.193708 2.221927 -4.454768 -9.281924 16.321694 6.333793 7.869486 -8.558098 nan nan nan -0.727658 4.795804 -6.498230 1.499464 2.580002 58.705422 5.991746 -3.090174 -0.762331 nan nan nan -2.017733 1.357319 13.641771 2.763767 -1.117125 4.684382 0.494836 0.805242 -2.066269 2.037058 1.188351 -5.280318 0.111715 -3.338920 -14.850699 -24.945812 -4.131733 0.426549 -50.525509 -3.437549 7.739032 -1.112086 -20.367506 2.247351 -8.433969 -3.888220 -19.505053 25.947242 10.719226 -5.926252 56.018615 22.080203 23.945432 -14.699466 64.242280 9.008668 12.457896 4.482551 -1.008294 
102.465134 -89.871513 95.946861 44.751432 -0.273784 77.793818 -6.855724 -0.692631 3.805379 -3.690648 -10.644694 14.826488 6.260683 7.854926 -8.578818 nan nan nan -0.539897 4.489712 -7.250240 1.055207 1.942766 57.351356 6.223699 -3.225842 -1.020827 nan nan nan -1.546428 0.783460 13.253255 2.781738 -1.119600 4.796186 0.479471 0.628485 -1.690110 1.832610 0.781703 -5.366329 0.379035 -3.273620 -14.624132 -24.863280 -4.494739 0.281250 -51.107960 -5.382292 8.174490 -0.631032 -21.522136 2.246731 -9.217823 -4.383321 -20.350333 25.599991 9.854135 -5.809032 55.503886 20.576073 23.545486 -12.743613 63.204814 11.437749 14.893323 4.179409 -1.755226 
103.107674 -90.362167 96.185921 45.839618 0.162093 77.913480 -6.809542 -0.755569 4.848969 -3.090747 -11.813891 13.751922 6.085156 7.843117 -8.554980 nan nan nan -0.407442 4.214273 -8.309602 0.744815 0.959971 55.974440 6.451716 -3.627007 -1.010443 nan nan nan -1.375694 0.248797 13.430545 2.854401 -1.314905 4.417887 0.678923 0.227982 -1.497313 1.686980 0.532291 -5.424387 0.679703 -3.089181 -14.437263 -24.692332 -4.930823 0.168280 -51.650220 -7.330590 8.757184 -0.382184 -22.673262 1.719606 -8.650804 -4.635353 -22.037845 25.229474 9.236519 -5.634644 55.297080 19.079572 23.503485 -11.281219 61.654029 12.339606 15.044241 4.197641 -2.895127 
103.725296 -90.834404 96.399147 46.863500 0.615605 78.055889 -6.705629 -0.925446 5.901853 -2.508797 -12.952490 12.561044 5.898860 7.996916 -8.419218 nan nan nan -0.196092 4.108628 -9.314159 0.438093 0.024476 54.358856 6.703228 -4.183387 -0.906605 nan nan nan -1.165206 -0.227376 13.622461 2.908823 -1.478202 4.136023 0.860593 -0.139490 -1.387978 1.525415 0.256535 -5.313880 1.128818 -2.812291 -14.659653 -24.517145 -5.601227 0.022914 -52.086365 -9.277162 9.589487 -0.318599 -23.721371 1.111666 -6.883425 -4.073614 -23.873372 24.765053 8.679449 -5.517115 54.983620 17.348510 23.544171 -9.874202 60.099939 12.866787 14.028597 4.031114 -4.834371 
104.349968 -91.309746 96.566849 47.935334 0.973926 78.202182 -6.666156 -1.096141 6.926849 -1.973336 -14.036250 11.413591 5.826762 8.164271 -8.244807 nan nan nan -0.098566 3.987935 -10.244837 0.113271 -0.918496 52.671120 7.107714 -4.832249 -0.929491 nan nan nan -1.036261 -0.594052 13.867240 2.913931 -1.643576 3.786910 1.060878 -0.541202 -1.271554 1.425291 -0.023327 -5.240739 1.586527 -2.730322 -14.894313 -24.211660 -6.383951 -0.140807 -52.353663 -11.249820 10.508935 -0.583608 -24.628480 0.715570 -4.930908 -3.602316 -25.104808 24.191300 8.176732 -5.382733 54.659235 15.455939 23.567644 -8.634226 58.397636 12.585566 12.086392 4.084521 -7.389722 
104.906136 -91.795311 96.726105 49.298513 1.292170 78.231926 -6.514091 -1.016540 7.899585 -1.582449 -15.316867 10.497809 5.681273 8.139136 -8.028473 nan nan nan -0.065588 3.892088 -10.917440 -0.263110 -2.125392 50.792986 7.433694 -5.459021 -0.912807 nan nan nan -1.066662 -1.020059 14.518927 2.863389 -1.766837 3.069253 1.372293 -1.201496 -1.155965 1.601137 -0.026088 -5.025456 1.815226 -2.818181 -15.069249 -23.962650 -7.020262 -0.202204 -52.291335 -13.371224 11.541867 -0.958242 -25.152977 0.623858 -2.591265 -3.814171 -25.686011 23.312604 7.913400 -5.275262 54.512651 13.083671 24.389461 -5.234748 56.045325 10.435174 5.533931 5.252562 -16.118353 
